# xmcd CD database file generated by Grip 2.95
# 
# Track frame offsets:
#       150
#       9895
#       23125
#       34147
#       48837
#       58350
#       69045
#       83585
#       97285
#       105730
#       117557
#       129890
#       140852
#       150430
# 
# Disc length: 2227 seconds
# 
# Revision: 3
# Processed by: cddbd v1.4b41PL1 Copyright (c) Steve Scherf et al.
# Submitted via: Grip 2.95
# 
DISCID=b308b10e
DTITLE=Boxcar Wille - The Best of
DYEAR=1900
DGENRE=
TTITLE0=Waiting for a Train
TTITLE1=From a Rolls to the Rails
TTITLE2=The Lord Made a Hobo out of Me
TTITLE3=Take Me Home
TTITLE4=I Wake Up Every Morning
TTITLE5=I Came So Close To Callin You
TTITLE6=I'm So Lonesome I Could Cry
TTITLE7=Lonesome Whistle
TTITLE8=Daddy Was a Railroad Man
TTITLE9=Hot Box Blues
TTITLE10=I Can't Help it
TTITLE11=The Day Elvis Died
TTITLE12=Hank You Still Make Me Cry
TTITLE13=Train Medley
EXTD=
EXTT0=
EXTT1=
EXTT2=
EXTT3=
EXTT4=
EXTT5=
EXTT6=
EXTT7=
EXTT8=
EXTT9=
EXTT10=
EXTT11=
EXTT12=
EXTT13=
PLAYORDER=
